<svg height="1038" width="720" xmlns="http://www.w3.org/2000/svg">
<rect height="1038" fill="#555" width="720"></rect>
<text fill="#7f7" font-family="Courier New" font-size="12" xml:space="preserve">
<tspan x="10" y="26">3 megabytes installed</tspan>
<tspan x="10" y="42"></tspan>
<tspan x="10" y="58">node_modules</tspan>
<tspan x="10" y="74">└─┬ webpack-unused@0.1.0 </tspan>
<tspan x="10" y="90">  ├─┬ es6-promisify@3.0.0 </tspan>
<tspan x="10" y="106">  │ └── es6-promise@3.3.1 </tspan>
<tspan x="10" y="122">  ├─┬ glob@6.0.4 </tspan>
<tspan x="10" y="138">  │ ├─┬ inflight@1.0.6 </tspan>
<tspan x="10" y="154">  │ │ └── wrappy@1.0.2 </tspan>
<tspan x="10" y="170">  │ ├── inherits@2.0.3 </tspan>
<tspan x="10" y="186">  │ ├─┬ minimatch@3.0.3 </tspan>
<tspan x="10" y="202">  │ │ └─┬ brace-expansion@1.1.7 </tspan>
<tspan x="10" y="218">  │ │   ├── balanced-match@0.4.2 </tspan>
<tspan x="10" y="234">  │ │   └── concat-map@0.0.1 </tspan>
<tspan x="10" y="250">  │ ├── once@1.4.0 </tspan>
<tspan x="10" y="266">  │ └── path-is-absolute@1.0.1 </tspan>
<tspan x="10" y="282">  └─┬ yargs@5.0.0 </tspan>
<tspan x="10" y="298">    ├─┬ cliui@3.2.0 </tspan>
<tspan x="10" y="314">    │ ├─┬ strip-ansi@3.0.1 </tspan>
<tspan x="10" y="330">    │ │ └── ansi-regex@2.1.1 </tspan>
<tspan x="10" y="346">    │ └── wrap-ansi@2.1.0 </tspan>
<tspan x="10" y="362">    ├── decamelize@1.2.0 </tspan>
<tspan x="10" y="378">    ├── get-caller-file@1.0.2 </tspan>
<tspan x="10" y="394">    ├── lodash.assign@4.2.0 </tspan>
<tspan x="10" y="410">    ├─┬ os-locale@1.4.0 </tspan>
<tspan x="10" y="426">    │ └─┬ lcid@1.0.0 </tspan>
<tspan x="10" y="442">    │   └── invert-kv@1.0.0 </tspan>
<tspan x="10" y="458">    ├─┬ read-pkg-up@1.0.1 </tspan>
<tspan x="10" y="474">    │ ├─┬ find-up@1.1.2 </tspan>
<tspan x="10" y="490">    │ │ ├── path-exists@2.1.0 </tspan>
<tspan x="10" y="506">    │ │ └─┬ pinkie-promise@2.0.1 </tspan>
<tspan x="10" y="522">    │ │   └── pinkie@2.0.4 </tspan>
<tspan x="10" y="538">    │ └─┬ read-pkg@1.1.0 </tspan>
<tspan x="10" y="554">    │   ├─┬ load-json-file@1.1.0 </tspan>
<tspan x="10" y="570">    │   │ ├── graceful-fs@4.1.11 </tspan>
<tspan x="10" y="586">    │   │ ├─┬ parse-json@2.2.0 </tspan>
<tspan x="10" y="602">    │   │ │ └─┬ error-ex@1.3.1 </tspan>
<tspan x="10" y="618">    │   │ │   └── is-arrayish@0.2.1 </tspan>
<tspan x="10" y="634">    │   │ ├── pify@2.3.0 </tspan>
<tspan x="10" y="650">    │   │ └─┬ strip-bom@2.0.0 </tspan>
<tspan x="10" y="666">    │   │   └── is-utf8@0.2.1 </tspan>
<tspan x="10" y="682">    │   ├─┬ normalize-package-data@2.3.8 </tspan>
<tspan x="10" y="698">    │   │ ├── hosted-git-info@2.4.2 </tspan>
<tspan x="10" y="714">    │   │ ├─┬ is-builtin-module@1.0.0 </tspan>
<tspan x="10" y="730">    │   │ │ └── builtin-modules@1.1.1 </tspan>
<tspan x="10" y="746">    │   │ ├── semver@5.3.0 </tspan>
<tspan x="10" y="762">    │   │ └─┬ validate-npm-package-license@3.0.1 </tspan>
<tspan x="10" y="778">    │   │   ├─┬ spdx-correct@1.0.2 </tspan>
<tspan x="10" y="794">    │   │   │ └── spdx-license-ids@1.2.2 </tspan>
<tspan x="10" y="810">    │   │   └── spdx-expression-parse@1.0.4 </tspan>
<tspan x="10" y="826">    │   └── path-type@1.1.0 </tspan>
<tspan x="10" y="842">    ├── require-directory@2.1.1 </tspan>
<tspan x="10" y="858">    ├── require-main-filename@1.0.1 </tspan>
<tspan x="10" y="874">    ├── set-blocking@2.0.0 </tspan>
<tspan x="10" y="890">    ├─┬ string-width@1.0.2 </tspan>
<tspan x="10" y="906">    │ ├── code-point-at@1.1.0 </tspan>
<tspan x="10" y="922">    │ └─┬ is-fullwidth-code-point@1.0.0 </tspan>
<tspan x="10" y="938">    │   └── number-is-nan@1.0.1 </tspan>
<tspan x="10" y="954">    ├── which-module@1.0.0 </tspan>
<tspan x="10" y="970">    ├── window-size@0.2.0 </tspan>
<tspan x="10" y="986">    ├── y18n@3.2.1 </tspan>
<tspan x="10" y="1002">    └─┬ yargs-parser@3.2.0 </tspan>
<tspan x="10" y="1018">      └── camelcase@3.0.0</tspan>
</text>
</svg>
